<svg xmlns="http://www.w3.org/2000/svg" width="171" height="144" viewBox="0 0 171 144" fill="none">
    <circle cx="95.709" cy="72" r="71.7747" fill="#F1F1F1" fill-opacity="0.5"/>
    <mask id="path-2-inside-1_101_4281" fill="white">
        <path fill-rule="evenodd" clip-rule="evenodd" d="M132.583 130.288H47.992H45.2962V130.158C31.3748 128.803 20.4941 117.067 20.4941 102.79C20.4941 87.6037 32.8054 75.2925 47.992 75.2925C48.1722 75.2925 48.3519 75.2942 48.5312 75.2976V75.2924C48.5312 52.0658 67.3602 33.2368 90.5869 33.2368C106.104 33.2368 119.659 41.6411 126.947 54.1463C128.806 53.8691 130.707 53.7255 132.643 53.7255C153.785 53.7255 170.924 70.8647 170.924 92.0069C170.924 111.798 155.905 128.082 136.642 130.082V130.288H132.702C132.682 130.288 132.662 130.288 132.643 130.288C132.623 130.288 132.603 130.288 132.583 130.288Z"/>
    </mask>
    <path fill-rule="evenodd" clip-rule="evenodd" d="M132.583 130.288H47.992H45.2962V130.158C31.3748 128.803 20.4941 117.067 20.4941 102.79C20.4941 87.6037 32.8054 75.2925 47.992 75.2925C48.1722 75.2925 48.3519 75.2942 48.5312 75.2976V75.2924C48.5312 52.0658 67.3602 33.2368 90.5869 33.2368C106.104 33.2368 119.659 41.6411 126.947 54.1463C128.806 53.8691 130.707 53.7255 132.643 53.7255C153.785 53.7255 170.924 70.8647 170.924 92.0069C170.924 111.798 155.905 128.082 136.642 130.082V130.288H132.702C132.682 130.288 132.662 130.288 132.643 130.288C132.623 130.288 132.603 130.288 132.583 130.288Z" fill="#E6E6E6" fill-opacity="0.5"/>
    <path d="M132.583 130.288L132.585 128.729H132.583V130.288ZM45.2962 130.288H43.7366V131.848H45.2962V130.288ZM45.2962 130.158H46.8558V128.743L45.4473 128.605L45.2962 130.158ZM48.5312 75.2976L48.5013 76.857L50.0909 76.8876V75.2976H48.5312ZM126.947 54.1463L125.6 54.9316L126.132 55.8447L127.178 55.6888L126.947 54.1463ZM136.642 130.082L136.481 128.531L135.082 128.676V130.082H136.642ZM136.642 130.288V131.848H138.202V130.288H136.642ZM132.702 130.288V128.729H132.7L132.702 130.288ZM132.583 128.729H47.992V131.848H132.583V128.729ZM47.992 128.729H45.2962V131.848H47.992V128.729ZM46.8558 130.288V130.158H43.7366V130.288H46.8558ZM45.4473 128.605C32.3171 127.328 22.0538 116.257 22.0538 102.79H18.9345C18.9345 117.878 30.4325 130.278 45.1452 131.71L45.4473 128.605ZM22.0538 102.79C22.0538 88.465 33.6667 76.8521 47.992 76.8521V73.7328C31.944 73.7328 18.9345 86.7423 18.9345 102.79H22.0538ZM47.992 76.8521C48.1622 76.8521 48.3319 76.8537 48.5013 76.857L48.5612 73.7383C48.3719 73.7347 48.1822 73.7328 47.992 73.7328V76.8521ZM50.0909 75.2976V75.2924H46.9716V75.2976H50.0909ZM50.0909 75.2924C50.0909 52.9271 68.2215 34.7965 90.5869 34.7965V31.6772C66.4988 31.6772 46.9716 51.2044 46.9716 75.2924H50.0909ZM90.5869 34.7965C105.527 34.7965 118.58 42.8861 125.6 54.9316L128.295 53.3609C120.739 40.3961 106.682 31.6772 90.5869 31.6772V34.7965ZM127.178 55.6888C128.96 55.423 130.785 55.2852 132.643 55.2852V52.1659C130.63 52.1659 128.651 52.3152 126.717 52.6037L127.178 55.6888ZM132.643 55.2852C152.923 55.2852 169.364 71.726 169.364 92.0069H172.484C172.484 70.0033 154.646 52.1659 132.643 52.1659V55.2852ZM169.364 92.0069C169.364 110.991 154.957 126.612 136.481 128.531L136.803 131.633C156.852 129.552 172.484 112.606 172.484 92.0069H169.364ZM135.082 130.082V130.288H138.202V130.082H135.082ZM136.642 128.729H132.702V131.848H136.642V128.729ZM132.7 128.729C132.681 128.729 132.662 128.729 132.643 128.729V131.848C132.663 131.848 132.684 131.848 132.705 131.848L132.7 128.729ZM132.643 128.729C132.623 128.729 132.604 128.729 132.585 128.729L132.58 131.848C132.601 131.848 132.622 131.848 132.643 131.848V128.729Z" fill="#CCCCCC" fill-opacity="0.5" mask="url(#path-2-inside-1_101_4281)"/>
    <path d="M86.8332 81.7625C86.8332 83.0902 86.5717 84.4049 86.0636 85.6315C85.5555 86.8582 84.8107 87.9727 83.8719 88.9116C82.9331 89.8504 81.8185 90.5951 80.5919 91.1032C79.3652 91.6113 78.0505 91.8728 76.7228 91.8728C75.3951 91.8728 74.0804 91.6113 72.8537 91.1032C71.6271 90.5951 70.5125 89.8504 69.5737 88.9116C68.6349 87.9727 67.8901 86.8582 67.382 85.6315C66.8739 84.4049 66.6124 83.0902 66.6124 81.7625H68.8414C68.8414 82.7975 69.0452 83.8223 69.4413 84.7786C69.8374 85.7348 70.4179 86.6036 71.1498 87.3355C71.8816 88.0673 72.7505 88.6479 73.7067 89.044C74.6629 89.44 75.6878 89.6439 76.7228 89.6439C77.7578 89.6439 78.7827 89.44 79.7389 89.044C80.6951 88.6479 81.564 88.0673 82.2958 87.3355C83.0277 86.6036 83.6082 85.7348 84.0043 84.7786C84.4004 83.8223 84.6042 82.7975 84.6042 81.7625H86.8332Z" fill="#CCCCCC" fill-opacity="0.5"/>
    <path d="M120.822 81.7625C120.822 83.0902 120.56 84.4049 120.052 85.6315C119.544 86.8582 118.8 87.9727 117.861 88.9116C116.922 89.8504 115.807 90.5951 114.581 91.1032C113.354 91.6113 112.039 91.8728 110.712 91.8728C109.384 91.8728 108.069 91.6113 106.842 91.1032C105.616 90.5951 104.501 89.8504 103.562 88.9116C102.624 87.9727 101.879 86.8582 101.371 85.6315C100.863 84.4049 100.601 83.0902 100.601 81.7625H102.83C102.83 82.7975 103.034 83.8223 103.43 84.7786C103.826 85.7348 104.407 86.6036 105.139 87.3355C105.87 88.0673 106.739 88.6479 107.695 89.044C108.652 89.44 109.677 89.6439 110.712 89.6439C111.747 89.6439 112.771 89.44 113.728 89.044C114.684 88.6479 115.553 88.0673 116.285 87.3355C117.016 86.6036 117.597 85.7348 117.993 84.7786C118.389 83.8223 118.593 82.7975 118.593 81.7625H120.822Z" fill="#CCCCCC" fill-opacity="0.5"/>
    <rect x="84.2136" y="100.172" width="18.1601" height="2.63614" fill="#CCCCCC" fill-opacity="0.5"/>
    <path d="M4.87211 48.5556H14.2596V51.6378H0.0760498V49.3869L9.28448 36.1242H0.0888393V33.0164H14.055V35.2161L4.87211 48.5556Z" fill="#CCCCCC" fill-opacity="0.5"/>
    <path d="M21.2601 65.5351H27.1017V67.4532H18.2757V66.0525L24.0058 57.7994H18.2836V55.8655H26.9744V57.2344L21.2601 65.5351Z" fill="#CCCCCC" fill-opacity="0.5"/>
</svg>