<svg width="98" height="30" viewBox="0 0 98 30" fill="none" xmlns="http://www.w3.org/2000/svg">
<g clip-path="url(#clip0_124_4868)">
<circle cx="13.1179" cy="10.8171" r="7.40534" stroke="#008EEF" stroke-width="5.6126"/>
<path fill-rule="evenodd" clip-rule="evenodd" d="M23.2451 22.9061C22.4091 21.9081 20.9296 21.798 19.8007 22.4466C17.6074 23.7068 15.0871 24.3293 12.5281 24.2165C9.96907 24.1037 7.51326 23.2618 5.4394 21.8135C4.37198 21.068 2.88857 21.0474 1.96796 21.9681C1.04734 22.8887 1.03934 24.3956 2.07156 25.1891C4.99147 27.4336 8.54267 28.7471 12.2576 28.9238C12.2785 28.9248 12.2995 28.9258 12.3204 28.9267C12.3414 28.9276 12.3623 28.9285 12.3833 28.9294C16.0993 29.0803 19.7523 28.0844 22.8584 26.1055C23.9565 25.406 24.0811 23.9042 23.2451 22.9061Z" fill="#008EEF"/>
</g>
<path d="M38.5347 22.2332C37.1068 22.2332 35.8778 21.944 34.8476 21.3656C33.8234 20.7812 33.0341 19.9558 32.4798 18.8894C31.9256 17.817 31.6484 16.5488 31.6484 15.0848C31.6484 13.657 31.9256 12.4039 32.4798 11.3254C33.0341 10.247 33.8143 9.40657 34.8204 8.80409C35.8326 8.20163 37.0195 7.90039 38.381 7.90039C39.2968 7.90039 40.1493 8.048 40.9385 8.34321C41.7338 8.63239 42.4266 9.06918 43.017 9.65358C43.6135 10.238 44.0774 10.973 44.4088 11.8586C44.7401 12.7382 44.9058 13.7684 44.9058 14.9493V16.0066H33.1847V13.6208H41.2819C41.2819 13.0666 41.1614 12.5756 40.9205 12.1478C40.6795 11.7201 40.3451 11.3857 39.9173 11.1447C39.4956 10.8977 39.0046 10.7742 38.4443 10.7742C37.8599 10.7742 37.3418 10.9097 36.8899 11.1808C36.4441 11.4459 36.0947 11.8044 35.8416 12.2562C35.5886 12.7021 35.4591 13.1991 35.453 13.7474V16.0157C35.453 16.7025 35.5796 17.2959 35.8326 17.796C36.0917 18.296 36.4561 18.6816 36.9261 18.9527C37.396 19.2238 37.9533 19.3594 38.5979 19.3594C39.0257 19.3594 39.4173 19.2991 39.7727 19.1786C40.1282 19.0581 40.4325 18.8774 40.6855 18.6364C41.1445 18.1993 41.6959 17.7793 42.3283 17.821L42.6554 17.8426C43.8 17.9181 44.6308 19.0367 43.938 19.951C43.8668 20.0451 43.7917 20.1371 43.7129 20.2269C43.1586 20.8595 42.4417 21.3535 41.5621 21.709C40.6885 22.0584 39.6794 22.2332 38.5347 22.2332Z" fill="#008EEF"/>
<path d="M50.7589 13.9371V20.0372C50.7589 21.1002 49.8971 21.962 48.834 21.962C47.7709 21.962 46.9091 21.1002 46.9091 20.0371V9.91565C46.9091 8.90247 47.7305 8.08113 48.7436 8.08113C49.7568 8.08113 50.5782 8.90247 50.5782 9.91565V10.5302H50.7408C51.0481 9.72286 51.5632 9.08424 52.2862 8.61432C53.0091 8.13837 53.8857 7.90039 54.916 7.90039C55.8799 7.90039 56.7204 8.11126 57.4373 8.53298C58.1542 8.95471 58.7115 9.55718 59.1091 10.3404C59.5068 11.1176 59.7056 12.0454 59.7056 13.1238V20.0371C59.7056 21.1002 58.8438 21.962 57.7807 21.962C56.7176 21.962 55.8558 21.1002 55.8558 20.0372V13.8106C55.8618 12.9611 55.6449 12.2984 55.2051 11.8225C54.7653 11.3405 54.1599 11.0995 53.3887 11.0995C52.8706 11.0995 52.4127 11.211 52.0151 11.4339C51.6235 11.6568 51.3162 11.9821 51.0933 12.4099C50.8764 12.8316 50.7649 13.3407 50.7589 13.9371Z" fill="#008EEF"/>
<path d="M71.1323 16.0518V10.006C71.1323 8.94294 71.9941 8.08113 73.0572 8.08113C74.1203 8.08113 74.9821 8.94293 74.9821 10.006V20.114C74.9821 21.1346 74.1547 21.962 73.134 21.962C72.1133 21.962 71.2859 21.1346 71.2859 20.114V19.4407H71.1413C70.8281 20.254 70.3069 20.9077 69.5779 21.4017C68.855 21.8958 67.9724 22.1428 66.9301 22.1428C66.0023 22.1428 65.1859 21.9319 64.481 21.5102C63.7761 21.0885 63.2249 20.489 62.8273 19.7118C62.4356 18.9346 62.2368 18.0038 62.2308 16.9194V10.006C62.2308 8.94294 63.0926 8.08113 64.1557 8.08113C65.2188 8.08113 66.0806 8.94293 66.0806 10.006V16.2326C66.0866 17.0519 66.3065 17.6996 66.7403 18.1755C67.1741 18.6515 67.7555 18.8894 68.4845 18.8894C68.9484 18.8894 69.3821 18.784 69.7858 18.5731C70.1894 18.3563 70.5148 18.0369 70.7618 17.6152C71.0148 17.1935 71.1383 16.6724 71.1323 16.0518Z" fill="#008EEF"/>
<path d="M79.4774 21.962C78.4143 21.962 77.5525 21.1002 77.5525 20.0371V9.91565C77.5525 8.90247 78.3738 8.08113 79.387 8.08113C80.4002 8.08113 81.2215 8.90248 81.2215 9.91565V10.5302H81.3842C81.6734 9.71684 82.1554 9.07521 82.8301 8.60528C83.5049 8.13535 84.3122 7.90039 85.2521 7.90039C86.204 7.90039 87.0143 8.13837 87.683 8.61432C88.3518 9.08424 88.7976 9.72286 89.0205 10.5302H89.1651C89.4483 9.73491 89.9604 9.09931 90.7014 8.62335C91.4485 8.14138 92.3311 7.90039 93.3493 7.90039C94.6446 7.90039 95.6959 8.31308 96.5032 9.13847C97.3165 9.95783 97.7232 11.1206 97.7232 12.6268V20.0417C97.7232 21.1023 96.8634 21.962 95.8028 21.962C94.7422 21.962 93.8825 21.1023 93.8825 20.0417V13.3859C93.8825 12.6147 93.6776 12.0363 93.2679 11.6508C92.8582 11.2652 92.3461 11.0724 91.7316 11.0724C91.0328 11.0724 90.4875 11.2953 90.0959 11.7411C89.7043 12.1809 89.5085 12.7623 89.5085 13.4853V20.0959C89.5085 21.1265 88.673 21.962 87.6424 21.962C86.6117 21.962 85.7762 21.1265 85.7762 20.0959V13.3045C85.7762 12.6238 85.5804 12.0815 85.1888 11.6779C84.8032 11.2742 84.2941 11.0724 83.6615 11.0724C83.2338 11.0724 82.8482 11.1808 82.5048 11.3977C82.1674 11.6086 81.8993 11.9068 81.7005 12.2924C81.5017 12.672 81.4023 13.1178 81.4023 13.6299V20.0371C81.4023 21.1002 80.5405 21.962 79.4774 21.962Z" fill="#008EEF"/>
<defs>
<clipPath id="clip0_124_4868">
<rect width="24.8759" height="29.0218" fill="white" transform="translate(0.308594 0.333984)"/>
</clipPath>
</defs>
</svg>
