<svg width="26" height="30" viewBox="0 0 26 30" fill="none" xmlns="http://www.w3.org/2000/svg">
    <g clip-path="url(#clip0_10195_55759)">
        <circle cx="13.6179" cy="10.9714" r="7.40534" stroke="#008EEF" stroke-width="5.6126"/>
        <path fill-rule="evenodd" clip-rule="evenodd" d="M23.7451 23.0604C22.9091 22.0624 21.4296 21.9523 20.3007 22.6009C18.1074 23.8611 15.5871 24.4836 13.0281 24.3708C10.4691 24.258 8.01326 23.416 5.9394 21.9678C4.87198 21.2223 3.38857 21.2017 2.46796 22.1224V22.1224C1.54734 23.043 1.53934 24.5499 2.57156 25.3434C5.49147 27.5879 9.04267 28.9014 12.7576 29.0781C12.7785 29.0791 12.7995 29.0801 12.8204 29.081C12.8414 29.0819 12.8623 29.0828 12.8833 29.0837C16.5993 29.2346 20.2523 28.2387 23.3584 26.2598C24.4565 25.5603 24.5811 24.0585 23.7451 23.0604V23.0604Z" fill="#008EEF"/>
    </g>
    <defs>
        <clipPath id="clip0_10195_55759">
            <rect width="24.8759" height="29.0218" fill="white" transform="translate(0.808594 0.488281)"/>
        </clipPath>
    </defs>
</svg>
